<svg xmlns="http://www.w3.org/2000/svg" viewBox="0 0 800 900"><rect width="800" height="900" fill="#101430"/><circle cx="560" cy="325" r="2" fill="#F7F4EC"/><circle cx="732" cy="287" r="3" fill="#F7F4EC"/><circle cx="191" cy="384" r="2" fill="#F7F4EC"/><circle cx="565" cy="574" r="3" fill="#F7F4EC"/><circle cx="671" cy="248" r="2" fill="#F7F4EC"/><circle cx="265" cy="857" r="4" fill="#F7F4EC"/><circle cx="777" cy="842" r="2" fill="#F7F4EC"/><circle cx="224" cy="550" r="4" fill="#F7F4EC"/><circle cx="384" cy="768" r="2" fill="#F7F4EC"/><circle cx="48" cy="829" r="3" fill="#F7F4EC"/><circle cx="503" cy="285" r="2" fill="#F7F4EC"/><circle cx="729" cy="639" r="3" fill="#F7F4EC"/><circle cx="477" cy="847" r="3" fill="#F7F4EC"/><circle cx="393" cy="102" r="2" fill="#F7F4EC"/><circle cx="124" cy="252" r="4" fill="#F7F4EC"/><circle cx="221" cy="365" r="2" fill="#F7F4EC"/><circle cx="514" cy="659" r="2" fill="#F7F4EC"/><circle cx="510" cy="688" r="3" fill="#F7F4EC"/><circle cx="678" cy="106" r="2" fill="#F7F4EC"/><circle cx="417" cy="821" r="2" fill="#F7F4EC"/><circle cx="509" cy="202" r="4" fill="#F7F4EC"/><circle cx="671" cy="360" r="2" fill="#F7F4EC"/><circle cx="759" cy="425" r="4" fill="#F7F4EC"/><circle cx="431" cy="781" r="2" fill="#F7F4EC"/><circle cx="762" cy="182" r="2" fill="#F7F4EC"/><circle cx="150" cy="48" r="2" fill="#F7F4EC"/><circle cx="624" cy="496" r="2" fill="#F7F4EC"/><circle cx="646" cy="630" r="4" fill="#F7F4EC"/><circle cx="693" cy="378" r="2" fill="#F7F4EC"/><circle cx="581" cy="581" r="2" fill="#F7F4EC"/><circle cx="41" cy="34" r="2" fill="#F7F4EC"/><circle cx="559" cy="787" r="2" fill="#F7F4EC"/><circle cx="464" cy="219" r="2" fill="#F7F4EC"/><circle cx="48" cy="277" r="2" fill="#F7F4EC"/><circle cx="319" cy="533" r="2" fill="#F7F4EC"/><circle cx="620" cy="353" r="3" fill="#F7F4EC"/><circle cx="577" cy="449" r="2" fill="#F7F4EC"/><circle cx="82" cy="777" r="3" fill="#F7F4EC"/><circle cx="489" cy="698" r="4" fill="#F7F4EC"/><circle cx="533" cy="153" r="2" fill="#F7F4EC"/><circle cx="556" cy="542" r="2" fill="#F7F4EC"/><circle cx="470" cy="815" r="2" fill="#F7F4EC"/><circle cx="643" cy="24" r="2" fill="#F7F4EC"/><circle cx="196" cy="164" r="4" fill="#F7F4EC"/><circle cx="653" cy="762" r="2" fill="#F7F4EC"/><circle cx="589" cy="83" r="3" fill="#F7F4EC"/><circle cx="718" cy="550" r="4" fill="#F7F4EC"/><circle cx="128" cy="593" r="2" fill="#F7F4EC"/><circle cx="274" cy="215" r="3" fill="#F7F4EC"/><circle cx="63" cy="810" r="2" fill="#F7F4EC"/><circle cx="539" cy="483" r="2" fill="#F7F4EC"/><circle cx="84" cy="473" r="3" fill="#F7F4EC"/><circle cx="647" cy="537" r="2" fill="#F7F4EC"/><circle cx="729" cy="303" r="4" fill="#F7F4EC"/><circle cx="540" cy="566" r="4" fill="#F7F4EC"/><circle cx="539" cy="273" r="3" fill="#F7F4EC"/><circle cx="592" cy="227" r="4" fill="#F7F4EC"/><circle cx="160" cy="446" r="2" fill="#F7F4EC"/><circle cx="421" cy="472" r="3" fill="#F7F4EC"/><circle cx="94" cy="707" r="2" fill="#F7F4EC"/><circle cx="458" cy="94" r="2" fill="#F7F4EC"/><circle cx="705" cy="330" r="2" fill="#F7F4EC"/><circle cx="178" cy="753" r="3" fill="#F7F4EC"/><circle cx="166" cy="279" r="2" fill="#F7F4EC"/><circle cx="498" cy="244" r="2" fill="#F7F4EC"/><circle cx="427" cy="518" r="2" fill="#F7F4EC"/><circle cx="703" cy="249" r="2" fill="#F7F4EC"/><circle cx="743" cy="461" r="4" fill="#F7F4EC"/><circle cx="367" cy="451" r="2" fill="#F7F4EC"/><circle cx="385" cy="346" r="2" fill="#F7F4EC"/>
<circle cx="540" cy="300" r="130" fill="#C75B54"/><circle cx="500" cy="260" r="26" fill="#8E3A2C"/><circle cx="590" cy="340" r="18" fill="#8E3A2C"/>
<ellipse cx="540" cy="310" rx="210" ry="46" fill="none" stroke="#E4B04A" stroke-width="10" transform="rotate(-18 540 310)"/>
<g transform="rotate(-14 260 620)"><circle cx="260" cy="600" r="74" fill="none" stroke="#F7F4EC" stroke-width="8"/><path d="M225 585 Q220 555 238 548 L248 572 Q260 566 272 572 L282 548 Q300 555 295 585 Q310 600 302 640 Q282 668 238 668 Q212 640 225 585 Z" fill="#141414" stroke="#F7F4EC" stroke-width="4"/><circle cx="248" cy="608" r="5" fill="#E4B04A"/><circle cx="272" cy="608" r="5" fill="#E4B04A"/></g>
<path d="M90 160 L120 190 M105 145 L150 195" stroke="#F7F4EC" stroke-width="4" stroke-linecap="round"/></svg>