<svg xmlns="http://www.w3.org/2000/svg" viewBox="0 0 800 900"><rect width="800" height="900" fill="#F7F4EC"/>
<circle cx="620" cy="180" r="90" fill="#D6362B"/>
<path d="M-20 560 C160 480 240 300 180 240 C320 300 420 260 400 170 C520 260 640 240 660 160 C700 260 780 300 820 290 L820 920 L-20 920 Z" fill="#16455C"/>
<path d="M-20 640 C180 560 300 420 250 340 C400 430 560 400 600 320 C660 420 780 440 820 420 L820 920 L-20 920 Z" fill="#2E6E8E"/>
<circle cx="120" cy="330.0" r="14" fill="#EDF4F4"/><circle cx="158" cy="329.2682321215368" r="20" fill="#EDF4F4"/><circle cx="196" cy="334.72562058539455" r="26" fill="#EDF4F4"/><circle cx="234" cy="346.8710399355211" r="14" fill="#EDF4F4"/><circle cx="272" cy="360.05441996246344" r="20" fill="#EDF4F4"/><circle cx="310" cy="367.6713941973051" r="26" fill="#EDF4F4"/><circle cx="348" cy="368.23532398559144" r="14" fill="#EDF4F4"/><circle cx="386" cy="366.7441072102497" r="20" fill="#EDF4F4"/><circle cx="424" cy="370.08513402701294" r="26" fill="#EDF4F4"/><circle cx="462" cy="380.70305211806595" r="14" fill="#EDF4F4"/><circle cx="500" cy="394.35216888711494" r="20" fill="#EDF4F4"/><circle cx="538" cy="403.99992165240565" r="26" fill="#EDF4F4"/><circle cx="576" cy="406.2925833440035" r="14" fill="#EDF4F4"/><circle cx="614" cy="404.6386637053869" r="20" fill="#EDF4F4"/><circle cx="411" cy="278" r="6" fill="#EDF4F4"/><circle cx="129" cy="258" r="7" fill="#EDF4F4"/><circle cx="176" cy="333" r="7" fill="#EDF4F4"/><circle cx="139" cy="369" r="4" fill="#EDF4F4"/><circle cx="118" cy="262" r="6" fill="#EDF4F4"/><circle cx="508" cy="257" r="4" fill="#EDF4F4"/><circle cx="172" cy="381" r="6" fill="#EDF4F4"/><circle cx="140" cy="384" r="3" fill="#EDF4F4"/><circle cx="308" cy="401" r="7" fill="#EDF4F4"/><circle cx="143" cy="387" r="7" fill="#EDF4F4"/><circle cx="486" cy="252" r="4" fill="#EDF4F4"/><circle cx="127" cy="382" r="4" fill="#EDF4F4"/><circle cx="376" cy="347" r="4" fill="#EDF4F4"/><circle cx="633" cy="270" r="7" fill="#EDF4F4"/><circle cx="395" cy="383" r="4" fill="#EDF4F4"/><circle cx="185" cy="388" r="7" fill="#EDF4F4"/><circle cx="272" cy="335" r="3" fill="#EDF4F4"/><circle cx="640" cy="256" r="7" fill="#EDF4F4"/><circle cx="141" cy="398" r="4" fill="#EDF4F4"/><circle cx="588" cy="414" r="7" fill="#EDF4F4"/><circle cx="517" cy="320" r="6" fill="#EDF4F4"/><circle cx="679" cy="356" r="5" fill="#EDF4F4"/><circle cx="386" cy="303" r="4" fill="#EDF4F4"/><circle cx="329" cy="260" r="7" fill="#EDF4F4"/><circle cx="387" cy="374" r="6" fill="#EDF4F4"/><circle cx="431" cy="354" r="5" fill="#EDF4F4"/>
<path d="M-20 760 Q200 700 420 750 T820 740 V920 H-20 Z" fill="#0E3346"/></svg>