<svg xmlns="http://www.w3.org/2000/svg" viewBox="0 0 800 900"><rect width="800" height="900" fill="#0E3B3F"/><circle cx="200" cy="220" r="30" fill="none" stroke="#9FD8CF" stroke-width="3" opacity="0.38"/><circle cx="200" cy="220" r="60" fill="none" stroke="#9FD8CF" stroke-width="3" opacity="0.26"/><circle cx="200" cy="220" r="95" fill="none" stroke="#9FD8CF" stroke-width="3" opacity="0.12"/><circle cx="600" cy="640" r="30" fill="none" stroke="#9FD8CF" stroke-width="3" opacity="0.38"/><circle cx="600" cy="640" r="60" fill="none" stroke="#9FD8CF" stroke-width="3" opacity="0.26"/><circle cx="600" cy="640" r="95" fill="none" stroke="#9FD8CF" stroke-width="3" opacity="0.12"/><circle cx="560" cy="180" r="30" fill="none" stroke="#9FD8CF" stroke-width="3" opacity="0.38"/><circle cx="560" cy="180" r="60" fill="none" stroke="#9FD8CF" stroke-width="3" opacity="0.26"/><circle cx="560" cy="180" r="95" fill="none" stroke="#9FD8CF" stroke-width="3" opacity="0.12"/>
<g transform="rotate(24 320 420)"><path d="M320 300 C400 330 400 510 320 540 C240 510 240 330 320 300 Z" fill="#F2ECDF"/><path d="M320 540 L290 600 L350 600 Z" fill="#F2ECDF"/><circle cx="320" cy="370" r="34" fill="#D6362B"/><circle cx="300" cy="470" r="22" fill="#141414"/></g>
<g transform="rotate(-150 480 520)"><path d="M480 400 C560 430 560 610 480 640 C400 610 400 430 480 400 Z" fill="#E8833A"/><path d="M480 640 L450 700 L510 700 Z" fill="#E8833A"/><circle cx="480" cy="480" r="26" fill="#F2ECDF"/></g>
<ellipse cx="160" cy="700" rx="90" ry="60" fill="#1D6E54"/><path d="M160 700 L250 660 L250 740 Z" fill="#0F4A38"/>
<ellipse cx="660" cy="120" rx="70" ry="46" fill="#1D6E54"/></svg>