<svg xmlns="http://www.w3.org/2000/svg" viewBox="0 0 800 900"><rect width="800" height="900" fill="#F4C36B"/><rect x="0" y="0" width="800" height="92" fill="#F4C36B"/><rect x="0" y="90" width="800" height="92" fill="#EFA45B"/><rect x="0" y="180" width="800" height="92" fill="#E4784A"/><rect x="0" y="270" width="800" height="92" fill="#C74B27"/><rect x="0" y="360" width="800" height="92" fill="#8E3A2C"/>
<circle cx="400" cy="300" r="110" fill="#F7F4EC" opacity="0.9"/>
<rect x="0" y="470" width="800" height="430" fill="#233B4A"/>
<rect x="0" y="470" width="800" height="10" fill="#EFA45B"/>
<g fill="#D6362B"><rect x="250" y="200" width="34" height="290"/><rect x="516" y="200" width="34" height="290"/><rect x="200" y="170" width="400" height="36" rx="8"/><rect x="230" y="240" width="340" height="24"/><rect x="388" y="206" width="24" height="34"/></g>
<g fill="#D6362B" opacity="0.35" transform="translate(0,975) scale(1,-1)"><rect x="250" y="480" width="34" height="120"/><rect x="516" y="480" width="34" height="120"/></g>
<path d="M60 520 h120 M640 560 h110 M200 600 h90 M480 640 h140" stroke="#EFA45B" stroke-width="5" opacity="0.5"/></svg>